Coordinates
version=1
nRows=5
nColumns=40
inDegrees=yes

Units are S.I. units (second, meters, Newtons, ...)
Angles are in degrees.

endheader
time	pelvis_tilt	pelvis_list	pelvis_rotation	pelvis_tx	pelvis_ty	pelvis_tz	hip_flexion_r	hip_adduction_r	hip_rotation_r	knee_angle_r	knee_angle_r_beta	ankle_angle_r	subtalar_angle_r	mtp_angle_r	hip_flexion_l	hip_adduction_l	hip_rotation_l	knee_angle_l	knee_angle_l_beta	ankle_angle_l	subtalar_angle_l	mtp_angle_l	lumbar_extension	lumbar_bending	lumbar_rotation	arm_flex_r	arm_add_r	arm_rot_r	elbow_flex_r	pro_sup_r	wrist_flex_r	wrist_dev_r	arm_flex_l	arm_add_l	arm_rot_l	elbow_flex_l	pro_sup_l	wrist_flex_l	wrist_dev_l
     35.89250000	     -5.03612820	     -4.92272822	     -3.52777793	      0.87099632	      0.92086014	      0.49269826	     22.14086269	      3.12759842	    -10.97445620	     21.95059595	     21.95059595	      6.32129751	     -3.05817707	     -3.24114137	      7.56628247	    -10.71545998	     -7.00822267	     39.54899652	     39.54899652	     13.78982165	    -17.79552362	     -3.24441012	     -9.83200921	      7.11804186	      0.89198652	     -5.22296882	    -11.68844864	    -12.52983956	     27.88475234	     47.08522992	      0.00000000	      0.00000000	     12.48602710	    -13.99112401	     -9.93299757	     73.21375763	     47.37344398	      0.00000000	      0.00000000
     35.90571429	     -5.25009926	     -4.92301056	     -3.21897161	      0.87141898	      0.92142063	      0.49479382	     21.73986121	      3.11391389	    -11.57094246	     21.78275193	     21.78275193	      7.03980865	     -2.29734347	     -2.64825537	      9.89019619	    -10.98953404	     -5.85471153	     43.72320823	     43.72320823	     14.31091239	    -17.92991286	      2.03983280	     -9.61591076	      7.21293289	      1.65033049	     -5.60792538	    -12.13044586	    -10.31436895	     31.43340065	     46.69735782	      0.00000000	      0.00000000	     13.34236556	    -12.99897495	     -8.94166856	     69.26787266	     47.27361775	      0.00000000	      0.00000000
     35.91892857	     -5.31499057	     -4.99279869	     -2.88632641	      0.87171368	      0.92203390	      0.49680143	     21.15137643	      3.17370155	    -12.16881942	     21.52907960	     21.52907960	      7.43289841	     -1.66664930	     -2.73817300	     11.97555574	    -11.34310356	     -4.91114831	     47.44415389	     47.44415389	     13.97463842	    -18.21783545	      5.09950292	     -9.64052767	      7.28763857	      1.69633021	     -4.65544827	    -12.48405503	     -8.96366532	     33.26228465	     46.49321553	      0.00000000	      0.00000000	     13.11737499	    -12.43270100	     -8.60010945	     67.39537401	     47.23861366	      0.00000000	      0.00000000
     35.93214286	     -5.28438212	     -5.12452714	     -2.60301414	      0.87185334	      0.92266545	      0.49886380	     20.47938545	      3.36729105	    -12.53211835	     21.26577459	     21.26577459	      7.73876636	     -1.43256969	     -2.80383557	     13.79524636	    -11.81656554	     -4.23512829	     50.56640406	     50.56640406	     12.74396656	    -18.57034445	      5.36456317	     -9.83192004	      7.39140854	      1.87229191	     -3.10804351	    -12.63508220	     -8.89253786	     34.00454321	     46.46746346	      0.00000000	      0.00000000	     12.58279045	    -11.87039431	     -8.30539427	     66.72490854	     47.20375365	      0.00000000	      0.00000000
     35.94535714	     -5.42745211	     -5.17016162	     -2.24210142	      0.87181041	      0.92307363	      0.50050503	     19.98791372	      3.35704329	    -13.28009127	     20.99781993	     20.99781993	      8.06817916	     -0.57691708	     -2.90218335	     16.01415563	    -11.98676468	     -3.25396259	     53.71566957	     53.71566957	     13.31752651	    -18.54788745	     10.01055114	     -9.68452752	      7.47269804	      1.90010096	     -2.17038108	    -13.11120800	     -7.64846068	     35.88347328	     46.29293318	      0.00000000	      0.00000000	     12.59919443	    -11.29280355	     -8.20663053	     63.41097340	     47.15669656	      0.00000000	      0.00000000
